<?xml version="1.0" encoding="utf-8"?>
<!-- Generator: Adobe Illustrator 22.0.0, SVG Export Plug-In . SVG Version: 6.00 Build 0)  -->
<svg version="1.1" id="Capa_1" xmlns="http://www.w3.org/2000/svg" xmlns:xlink="http://www.w3.org/1999/xlink" x="0px" y="0px"
	 viewBox="0 0 3671 510" style="enable-background:new 0 0 3671 510;" xml:space="preserve">
<style type="text/css">
	.st0{fill:none;}
	.st1{fill:#780B11;}
</style>
<g id="bird-cells">
	<g>
		<g>
			<path class="st0" d="M0.5,0.5h359v509H0.5V0.5z"/>
			<path class="st0" d="M359.5,0.5h359v509h-359V0.5z"/>
			<path class="st0" d="M718.5,0.5h359v509h-359V0.5z"/>
			<path class="st0" d="M1077.5,0.5h370v509h-370V0.5z"/>
			<path class="st0" d="M1448.5,0.5h370v509h-370V0.5z"/>
			<path class="st0" d="M1818.5,0.5h370v509h-370V0.5z"/>
			<path class="st0" d="M2189.5,0.5h370v509h-370V0.5z"/>
			<path class="st0" d="M2559.5,0.5h370v509h-370V0.5z"/>
			<path class="st0" d="M2930.5,0.5h370v509h-370V0.5z"/>
			<path class="st0" d="M3300.5,0.5h370v509h-370V0.5z"/>
		</g>
	</g>
	<path class="st1" d="M3491.8,280.1c0,0,88.1-39.5,130.6,0c0,0-82-12.2-130.6,48.6c-48.6-60.8-130.6-48.6-130.6-48.6
		C3403.7,240.7,3491.8,280.1,3491.8,280.1z"/>
	<path class="st1" d="M3123.5,280.1c0,0,88.1-39.5,130.6,0c0,0-82-12.2-130.6,48.6c-48.6-60.8-130.6-48.6-130.6-48.6
		C3035.4,240.7,3123.5,280.1,3123.5,280.1z"/>
	<path class="st1" d="M2755.2,280.1c0,0,88.1-39.5,130.6,0c0,0-82-12.2-130.6,48.6c-48.6-60.8-130.6-48.6-130.6-48.6
		C2667.1,240.7,2755.2,280.1,2755.2,280.1z"/>
	<path class="st1" d="M2386.8,280.1c0,0,88.1-39.5,130.6,0c0,0-82-12.2-130.6,48.6c-48.6-60.8-130.6-48.6-130.6-48.6
		C2298.7,240.7,2386.8,280.1,2386.8,280.1z"/>
	<path class="st1" d="M2018.5,280.1c0,0,88.1-39.5,130.6,0c0,0-82-12.2-130.6,48.6c-48.6-60.8-130.6-48.6-130.6-48.6
		C1930.4,240.7,2018.5,280.1,2018.5,280.1z"/>
	<path class="st1" d="M1650.2,280.1c0,0,88.1-32.5,130.6,7c0,4.3-81.9-15.4-130.6,35.6c-49.1-53.8-130.9-40.8-130.6-44.6
		C1562.1,238.7,1650.2,280.1,1650.2,280.1z"/>
	<path class="st1" d="M913.5,280.1c37.2-2.8,68.1-44.4,110.3-82.2c0,0-17.8,90.8-110.3,130.8c-95.5-43.4-98.7-130.8-98.7-130.8
		C849.3,233.6,870,279.3,913.5,280.1z"/>
	<path class="st1" d="M545.2,286c24.1,0,73.5-9.3,130.6-32.7c0,0-41.1,32.6-130.6,66.7c-78.5-34.7-130.6-66.7-130.6-66.7
		C483.3,275.3,521.1,286,545.2,286z"/>
	<path class="st1" d="M176.8,280.1c0,0,88.1-39.5,130.6,0c0,0-82-12.2-130.6,48.6C128.2,268,46.2,280.1,46.2,280.1
		C88.7,240.7,176.8,280.1,176.8,280.1z"/>
	<path class="st1" d="M566,297c0,10.5-9.2,26-20.5,26S525,307.5,525,297s9.2-19,20.5-19S566,286.5,566,297z"/>
	<path class="st1" d="M1281.5,286c24.1,0,73.5-9.3,130.6-32.7c0,0-41.1,32.6-130.6,66.7c-78.5-34.7-130.6-66.7-130.6-66.7
		C1219.7,275.3,1257.4,286,1281.5,286z"/>
	<path class="st1" d="M1302.3,297c0,10.5-9.2,26-20.5,26c-11.3,0-20.5-15.5-20.5-26s9.2-19,20.5-19
		C1293.2,278,1302.3,286.5,1302.3,297z"/>
	<path class="st1" d="M1671.3,290c0,10.5-9.2,26-20.5,26c-11.3,0-20.5-15.5-20.5-26s9.2-19,20.5-19
		C1662.2,271,1671.3,279.5,1671.3,290z"/>
	<ellipse class="st1" cx="911.5" cy="293" rx="20.5" ry="19"/>
</g>
<g id="Capa_2_1_">
</g>
</svg>
